<?xml version="1.0" encoding="UTF-8" ?>
<svg version="1.1" width="640" height="640" xmlns="http://www.w3.org/2000/svg" shape-rendering="crispEdges">
<rect x="150" y="200" width="390" height="10" fill="#000000" />
<rect x="140" y="210" width="10" height="10" fill="#000000" />
<rect x="150" y="210" width="390" height="10" fill="#FF6E6E" />
<rect x="540" y="210" width="10" height="10" fill="#000000" />
<rect x="130" y="220" width="10" height="10" fill="#000000" />
<rect x="140" y="220" width="20" height="10" fill="#FF6E6E" />
<rect x="160" y="220" width="10" height="20" fill="#FFE8E8" />
<rect x="170" y="220" width="360" height="10" fill="#FF3535" />
<rect x="530" y="220" width="20" height="10" fill="#FF3131" />
<rect x="550" y="220" width="10" height="10" fill="#000000" />
<rect x="120" y="230" width="10" height="70" fill="#000000" />
<rect x="130" y="230" width="20" height="10" fill="#FF6E6E" />
<rect x="150" y="230" width="10" height="20" fill="#FFE8E8" />
<rect x="170" y="230" width="30" height="10" fill="#FF3535" />
<rect x="200" y="230" width="40" height="10" fill="#391A43" />
<rect x="240" y="230" width="10" height="80" fill="#FF3535" />
<rect x="250" y="230" width="50" height="10" fill="#391A43" />
<rect x="300" y="230" width="20" height="10" fill="#FF3535" />
<rect x="320" y="230" width="30" height="10" fill="#391A43" />
<rect x="350" y="230" width="30" height="10" fill="#FF3535" />
<rect x="380" y="230" width="40" height="10" fill="#391A43" />
<rect x="420" y="230" width="20" height="10" fill="#FF3535" />
<rect x="440" y="230" width="50" height="10" fill="#391A43" />
<rect x="490" y="230" width="50" height="70" fill="#FF3535" />
<rect x="540" y="230" width="20" height="10" fill="#FF3131" />
<rect x="560" y="230" width="10" height="70" fill="#000000" />
<rect x="130" y="240" width="10" height="10" fill="#FF6E6E" />
<rect x="140" y="240" width="10" height="10" fill="#FFE8E8" />
<rect x="160" y="240" width="30" height="70" fill="#FF3535" />
<rect x="190" y="240" width="10" height="20" fill="#391A43" />
<rect x="200" y="240" width="40" height="20" fill="#FF3535" />
<rect x="250" y="240" width="20" height="70" fill="#FF3535" />
<rect x="270" y="240" width="10" height="60" fill="#391A43" />
<rect x="280" y="240" width="30" height="70" fill="#FF3535" />
<rect x="310" y="240" width="10" height="60" fill="#391A43" />
<rect x="320" y="240" width="30" height="30" fill="#FF3535" />
<rect x="350" y="240" width="10" height="60" fill="#391A43" />
<rect x="360" y="240" width="20" height="70" fill="#FF3535" />
<rect x="380" y="240" width="10" height="60" fill="#391A43" />
<rect x="390" y="240" width="30" height="20" fill="#FF3535" />
<rect x="420" y="240" width="10" height="20" fill="#391A43" />
<rect x="430" y="240" width="30" height="70" fill="#FF3535" />
<rect x="460" y="240" width="10" height="60" fill="#391A43" />
<rect x="470" y="240" width="20" height="70" fill="#FF3535" />
<rect x="540" y="240" width="20" height="40" fill="#FF3535" />
<rect x="130" y="250" width="30" height="40" fill="#FF3535" />
<rect x="190" y="260" width="10" height="30" fill="#FF3535" />
<rect x="200" y="260" width="30" height="10" fill="#391A43" />
<rect x="230" y="260" width="10" height="10" fill="#FF3535" />
<rect x="390" y="260" width="30" height="10" fill="#391A43" />
<rect x="420" y="260" width="10" height="20" fill="#FF3535" />
<rect x="200" y="270" width="30" height="20" fill="#FF3535" />
<rect x="230" y="270" width="10" height="20" fill="#391A43" />
<rect x="320" y="270" width="30" height="10" fill="#391A43" />
<rect x="390" y="270" width="20" height="40" fill="#FF3535" />
<rect x="410" y="270" width="10" height="10" fill="#391A43" />
<rect x="320" y="280" width="30" height="30" fill="#FF3535" />
<rect x="410" y="280" width="10" height="30" fill="#FF3535" />
<rect x="420" y="280" width="10" height="20" fill="#391A43" />
<rect x="540" y="280" width="10" height="10" fill="#FF3535" />
<rect x="550" y="280" width="10" height="20" fill="#E91818" />
<rect x="130" y="290" width="20" height="10" fill="#E91818" />
<rect x="150" y="290" width="10" height="10" fill="#FF3535" />
<rect x="190" y="290" width="40" height="10" fill="#391A43" />
<rect x="230" y="290" width="10" height="20" fill="#FF3535" />
<rect x="540" y="290" width="10" height="20" fill="#E91818" />
<rect x="130" y="300" width="10" height="10" fill="#000000" />
<rect x="140" y="300" width="20" height="10" fill="#E91818" />
<rect x="190" y="300" width="40" height="10" fill="#FF3535" />
<rect x="270" y="300" width="10" height="10" fill="#FF3535" />
<rect x="310" y="300" width="10" height="10" fill="#FF3535" />
<rect x="350" y="300" width="10" height="10" fill="#FF3535" />
<rect x="380" y="300" width="10" height="10" fill="#FF3535" />
<rect x="420" y="300" width="10" height="10" fill="#FF3535" />
<rect x="460" y="300" width="10" height="10" fill="#FF3535" />
<rect x="490" y="300" width="40" height="10" fill="#FF3535" />
<rect x="530" y="300" width="10" height="20" fill="#E91818" />
<rect x="550" y="300" width="10" height="10" fill="#000000" />
<rect x="140" y="310" width="10" height="10" fill="#000000" />
<rect x="150" y="310" width="380" height="10" fill="#E91818" />
<rect x="540" y="310" width="10" height="10" fill="#000000" />
<rect x="150" y="320" width="390" height="10" fill="#000000" />
</svg>