<?xml version="1.0" encoding="UTF-8" ?>
<svg version="1.1" width="1000" height="1000" xmlns="http://www.w3.org/2000/svg" shape-rendering="crispEdges">
<rect x="330" y="310" width="380" height="10" fill="#000000" />
<rect x="220" y="320" width="110" height="10" fill="#000000" />
<rect x="330" y="320" width="380" height="10" fill="#F5AA63" />
<rect x="710" y="320" width="110" height="10" fill="#000000" />
<rect x="120" y="330" width="100" height="10" fill="#000000" />
<rect x="220" y="330" width="110" height="10" fill="#F5AA63" />
<rect x="330" y="330" width="370" height="50" fill="#663931" />
<rect x="700" y="330" width="120" height="10" fill="#F5AA63" />
<rect x="820" y="330" width="100" height="10" fill="#000000" />
<rect x="60" y="340" width="60" height="10" fill="#000000" />
<rect x="120" y="340" width="110" height="10" fill="#F5AA63" />
<rect x="230" y="340" width="100" height="40" fill="#663931" />
<rect x="700" y="340" width="110" height="60" fill="#663931" />
<rect x="810" y="340" width="110" height="10" fill="#F5AA63" />
<rect x="920" y="340" width="60" height="10" fill="#000000" />
<rect x="60" y="350" width="10" height="30" fill="#000000" />
<rect x="70" y="350" width="60" height="10" fill="#F5AA63" />
<rect x="130" y="350" width="100" height="30" fill="#663931" />
<rect x="810" y="350" width="110" height="60" fill="#663931" />
<rect x="920" y="350" width="50" height="10" fill="#F5AA63" />
<rect x="970" y="350" width="10" height="30" fill="#000000" />
<rect x="70" y="360" width="10" height="20" fill="#F5AA63" />
<rect x="80" y="360" width="50" height="10" fill="#663931" />
<rect x="920" y="360" width="40" height="10" fill="#663931" />
<rect x="960" y="360" width="10" height="20" fill="#F5AA63" />
<rect x="80" y="370" width="10" height="70" fill="#F5AA63" />
<rect x="90" y="370" width="40" height="50" fill="#663931" />
<rect x="920" y="370" width="30" height="60" fill="#663931" />
<rect x="950" y="370" width="10" height="70" fill="#F5AA63" />
<rect x="70" y="380" width="10" height="60" fill="#000000" />
<rect x="130" y="380" width="60" height="10" fill="#663931" />
<rect x="190" y="380" width="50" height="10" fill="#FFF976" />
<rect x="240" y="380" width="20" height="140" fill="#663931" />
<rect x="260" y="380" width="40" height="10" fill="#FFF976" />
<rect x="300" y="380" width="40" height="10" fill="#663931" />
<rect x="340" y="380" width="50" height="10" fill="#FFF976" />
<rect x="390" y="380" width="310" height="20" fill="#663931" />
<rect x="960" y="380" width="10" height="60" fill="#000000" />
<rect x="130" y="390" width="50" height="130" fill="#663931" />
<rect x="180" y="390" width="20" height="80" fill="#FFF976" />
<rect x="200" y="390" width="40" height="80" fill="#663931" />
<rect x="260" y="390" width="20" height="90" fill="#FFF976" />
<rect x="280" y="390" width="20" height="40" fill="#663931" />
<rect x="300" y="390" width="10" height="50" fill="#FFF976" />
<rect x="310" y="390" width="30" height="10" fill="#663931" />
<rect x="340" y="390" width="20" height="90" fill="#FFF976" />
<rect x="360" y="390" width="30" height="30" fill="#663931" />
<rect x="310" y="400" width="10" height="30" fill="#FFF976" />
<rect x="320" y="400" width="20" height="120" fill="#663931" />
<rect x="390" y="400" width="90" height="10" fill="#663931" />
<rect x="480" y="400" width="20" height="10" fill="#FFF976" />
<rect x="500" y="400" width="50" height="10" fill="#663931" />
<rect x="550" y="400" width="10" height="60" fill="#FFF976" />
<rect x="560" y="400" width="160" height="10" fill="#663931" />
<rect x="720" y="400" width="10" height="50" fill="#FFF976" />
<rect x="730" y="400" width="80" height="10" fill="#663931" />
<rect x="390" y="410" width="80" height="110" fill="#663931" />
<rect x="470" y="410" width="10" height="50" fill="#FFF976" />
<rect x="480" y="410" width="20" height="20" fill="#663931" />
<rect x="500" y="410" width="10" height="50" fill="#FFF976" />
<rect x="510" y="410" width="40" height="10" fill="#663931" />
<rect x="560" y="410" width="10" height="110" fill="#663931" />
<rect x="570" y="410" width="10" height="30" fill="#FFF976" />
<rect x="580" y="410" width="20" height="30" fill="#663931" />
<rect x="600" y="410" width="10" height="40" fill="#FFF976" />
<rect x="610" y="410" width="20" height="10" fill="#663931" />
<rect x="630" y="410" width="20" height="10" fill="#FFF976" />
<rect x="650" y="410" width="20" height="10" fill="#663931" />
<rect x="670" y="410" width="30" height="10" fill="#FFF976" />
<rect x="700" y="410" width="20" height="10" fill="#663931" />
<rect x="730" y="410" width="10" height="10" fill="#FFF976" />
<rect x="740" y="410" width="10" height="110" fill="#663931" />
<rect x="750" y="410" width="10" height="40" fill="#FFF976" />
<rect x="760" y="410" width="20" height="40" fill="#663931" />
<rect x="780" y="410" width="10" height="50" fill="#FFF976" />
<rect x="790" y="410" width="10" height="110" fill="#663931" />
<rect x="800" y="410" width="10" height="50" fill="#FFF976" />
<rect x="810" y="410" width="10" height="10" fill="#663931" />
<rect x="820" y="410" width="10" height="10" fill="#FFF976" />
<rect x="830" y="410" width="20" height="10" fill="#663931" />
<rect x="850" y="410" width="20" height="10" fill="#FFF976" />
<rect x="870" y="410" width="50" height="10" fill="#663931" />
<rect x="90" y="420" width="10" height="80" fill="#F5AA63" />
<rect x="100" y="420" width="30" height="70" fill="#663931" />
<rect x="360" y="420" width="30" height="10" fill="#FFF976" />
<rect x="510" y="420" width="20" height="10" fill="#663931" />
<rect x="530" y="420" width="20" height="10" fill="#FFF976" />
<rect x="610" y="420" width="10" height="100" fill="#663931" />
<rect x="620" y="420" width="10" height="30" fill="#FFF976" />
<rect x="630" y="420" width="20" height="10" fill="#663931" />
<rect x="650" y="420" width="10" height="20" fill="#FFF976" />
<rect x="660" y="420" width="10" height="100" fill="#663931" />
<rect x="670" y="420" width="10" height="40" fill="#FFF976" />
<rect x="680" y="420" width="20" height="100" fill="#663931" />
<rect x="700" y="420" width="10" height="40" fill="#FFF976" />
<rect x="710" y="420" width="10" height="100" fill="#663931" />
<rect x="730" y="420" width="10" height="30" fill="#663931" />
<rect x="810" y="420" width="10" height="10" fill="#FFF976" />
<rect x="820" y="420" width="20" height="100" fill="#663931" />
<rect x="840" y="420" width="10" height="30" fill="#FFF976" />
<rect x="850" y="420" width="20" height="10" fill="#663931" />
<rect x="870" y="420" width="10" height="20" fill="#FFF976" />
<rect x="880" y="420" width="40" height="100" fill="#663931" />
<rect x="280" y="430" width="20" height="10" fill="#FFF976" />
<rect x="310" y="430" width="10" height="90" fill="#663931" />
<rect x="360" y="430" width="30" height="40" fill="#663931" />
<rect x="480" y="430" width="20" height="10" fill="#FFF976" />
<rect x="510" y="430" width="10" height="90" fill="#663931" />
<rect x="520" y="430" width="10" height="20" fill="#FFF976" />
<rect x="530" y="430" width="20" height="20" fill="#663931" />
<rect x="630" y="430" width="20" height="10" fill="#FFF976" />
<rect x="810" y="430" width="10" height="90" fill="#663931" />
<rect x="850" y="430" width="20" height="10" fill="#FFF976" />
<rect x="920" y="430" width="20" height="60" fill="#663931" />
<rect x="940" y="430" width="10" height="70" fill="#F5AA63" />
<rect x="80" y="440" width="10" height="60" fill="#000000" />
<rect x="280" y="440" width="30" height="80" fill="#663931" />
<rect x="480" y="440" width="20" height="80" fill="#663931" />
<rect x="570" y="440" width="10" height="80" fill="#663931" />
<rect x="580" y="440" width="10" height="10" fill="#FFF976" />
<rect x="590" y="440" width="10" height="10" fill="#663931" />
<rect x="630" y="440" width="30" height="10" fill="#663931" />
<rect x="850" y="440" width="30" height="10" fill="#663931" />
<rect x="950" y="440" width="10" height="60" fill="#000000" />
<rect x="520" y="450" width="10" height="70" fill="#663931" />
<rect x="530" y="450" width="20" height="10" fill="#FFF976" />
<rect x="580" y="450" width="10" height="70" fill="#663931" />
<rect x="590" y="450" width="10" height="10" fill="#FFF976" />
<rect x="600" y="450" width="10" height="70" fill="#663931" />
<rect x="620" y="450" width="10" height="70" fill="#663931" />
<rect x="630" y="450" width="20" height="10" fill="#FFF976" />
<rect x="650" y="450" width="10" height="70" fill="#663931" />
<rect x="720" y="450" width="10" height="70" fill="#663931" />
<rect x="730" y="450" width="10" height="10" fill="#FFF976" />
<rect x="750" y="450" width="10" height="70" fill="#663931" />
<rect x="760" y="450" width="20" height="10" fill="#FFF976" />
<rect x="840" y="450" width="10" height="70" fill="#663931" />
<rect x="850" y="450" width="20" height="10" fill="#FFF976" />
<rect x="870" y="450" width="10" height="70" fill="#663931" />
<rect x="470" y="460" width="10" height="60" fill="#663931" />
<rect x="500" y="460" width="10" height="60" fill="#663931" />
<rect x="530" y="460" width="30" height="60" fill="#663931" />
<rect x="590" y="460" width="10" height="60" fill="#663931" />
<rect x="630" y="460" width="20" height="60" fill="#663931" />
<rect x="670" y="460" width="10" height="60" fill="#663931" />
<rect x="700" y="460" width="10" height="60" fill="#663931" />
<rect x="730" y="460" width="10" height="60" fill="#663931" />
<rect x="760" y="460" width="30" height="60" fill="#663931" />
<rect x="800" y="460" width="10" height="60" fill="#663931" />
<rect x="850" y="460" width="20" height="60" fill="#663931" />
<rect x="180" y="470" width="10" height="50" fill="#663931" />
<rect x="190" y="470" width="50" height="10" fill="#FFF976" />
<rect x="360" y="470" width="30" height="10" fill="#FFF976" />
<rect x="190" y="480" width="50" height="40" fill="#663931" />
<rect x="260" y="480" width="20" height="40" fill="#663931" />
<rect x="340" y="480" width="50" height="40" fill="#663931" />
<rect x="100" y="490" width="10" height="40" fill="#F5AA63" />
<rect x="110" y="490" width="20" height="30" fill="#663931" />
<rect x="920" y="490" width="10" height="30" fill="#663931" />
<rect x="930" y="490" width="10" height="40" fill="#F5AA63" />
<rect x="90" y="500" width="10" height="40" fill="#000000" />
<rect x="940" y="500" width="10" height="40" fill="#000000" />
<rect x="110" y="520" width="820" height="10" fill="#F5AA63" />
<rect x="100" y="530" width="840" height="10" fill="#000000" />
</svg>