<svg version="1.1" id="Layer_1" xmlns="http://www.w3.org/2000/svg" xmlns:xlink="http://www.w3.org/1999/xlink" x="0px" y="0px"
     width="100%" viewBox="0 0 650 464" enable-background="new 0 0 650 464" xml:space="preserve">
<path fill="#15192E" opacity="1.000000" stroke="none"
      d="
M420.017181,323.996704
    C420.023529,329.641479 419.735840,335.306702 420.126984,340.924683
    C420.453796,345.618713 419.080872,347.160675 414.161316,347.108246
    C390.422638,346.855011 366.679779,346.995148 342.073181,347.088684
    C340.804962,348.847321 340.063202,350.510834 340.052185,352.179138
    C339.958710,366.322083 339.998077,380.465942 339.998657,394.609528
    C339.998749,396.788574 340.340637,399.057526 336.928406,399.017334
    C328.992523,398.923889 321.054810,398.983734 313.066620,398.988586
    C313.015381,398.995728 312.914429,399.018372 312.962097,398.549561
    C313.019989,394.285065 313.169250,390.483368 313.005768,386.695160
    C312.794952,381.808960 312.333893,376.933563 311.984985,371.626099
    C310.925018,370.134308 309.920135,368.231445 308.786041,368.151031
    C303.956696,367.808563 299.089111,368.005463 293.112701,368.005463
    C293.112701,364.136780 292.970245,359.244354 293.261047,354.377838
    C293.306458,353.618439 295.321198,352.394409 296.432861,352.386047
    C300.374329,352.356323 304.325684,352.683411 308.260956,353.019562
    C313.125458,353.435028 315.523163,351.472870 315.101227,346.427826
    C315.202545,346.413513 315.576904,346.233612 315.942749,345.955719
    C316.509613,339.353363 316.763733,333.029419 316.820404,326.703644
    C316.825439,326.140045 315.547729,325.564941 314.771301,324.597046
    C314.581818,323.391022 314.486755,322.583130 314.859680,321.622620
    C315.979675,321.399658 316.631683,321.329315 317.352234,321.687805
    C324.190796,322.362793 330.960876,322.608948 338.041199,322.989441
    C339.232941,322.518890 340.114441,321.914032 341.078247,321.099304
    C341.160583,320.889404 341.611450,320.884155 342.038757,320.852478
    C342.977966,319.406403 343.878937,318.006287 343.931458,316.575043
    C344.114349,311.591919 344.128601,306.593842 343.961426,301.609680
    C343.844330,298.120087 345.319031,296.926910 348.708160,296.957153
    C361.181671,297.068481 373.657684,297.083313 386.130646,296.945038
    C389.300323,296.909882 390.128906,298.182220 390.043243,301.089722
    C389.886627,306.407532 390.027649,311.733551 389.986481,317.055664
    C389.970062,319.176575 389.912842,321.212250 393.291077,321.057953
    C394.086792,321.270660 394.527161,321.444763 395.120178,321.959229
    C402.850769,322.546112 410.428680,322.792725 418.178589,323.278839
    C418.906128,323.677795 419.461670,323.837250 420.017181,323.996704
z"/>
    <path fill="#14182E" opacity="1.000000" stroke="none"
          d="
M125.999390,321.001617
    C110.978844,321.005554 95.958298,321.009491 80.415573,320.589478
    C79.596611,313.715576 79.385910,307.260010 78.966904,300.817963
    C78.755951,297.574646 80.305977,296.887451 83.152313,296.958923
    C88.811295,297.101105 94.481049,297.122711 100.135460,296.907715
    C101.446480,296.857880 102.713768,295.657715 104.469574,294.974609
    C111.737106,294.958618 118.545685,295.145996 125.328445,294.810913
    C126.936707,294.731476 128.458405,292.899780 130.003204,291.656250
    C129.848297,291.036377 129.710083,290.634399 129.439636,289.831055
    C129.405319,288.605103 129.503235,287.780487 129.905197,286.826172
    C130.053284,284.752686 129.897308,282.808990 129.676331,280.580750
    C129.655243,279.911926 129.699158,279.527649 130.067337,278.889343
    C130.938980,275.727692 131.486359,272.820007 132.499207,269.927795
    C139.976028,269.625916 146.987411,269.308624 153.999176,269.460571
    C153.999313,293.833252 153.956543,317.736969 154.084671,341.639801
    C154.094269,343.428375 155.325897,345.210358 156.145416,347.208801
    C156.858551,347.298798 157.415710,347.175476 158.440659,346.999573
    C166.621017,347.056519 174.333603,347.166077 182.061752,347.726410
    C182.065079,356.107330 182.052826,364.037476 181.570129,371.997437
    C174.651169,372.034515 168.195404,372.227264 161.756882,371.976807
    C158.113663,371.835114 156.785873,372.909698 156.913101,376.698761
    C157.173752,384.461212 156.986893,392.238678 156.984283,400.009979
    C156.984283,400.009979 156.502182,400.046478 155.969055,399.738800
    C146.942932,399.294678 138.449951,399.158234 129.956970,399.021790
    C129.642609,397.117218 129.059723,395.213348 129.054733,393.307953
    C128.993256,369.839478 129.016205,346.370789 128.964493,322.111450
    C127.940880,321.214417 126.970131,321.108002 125.999390,321.001617
z"/>
    <path fill="#14182D" opacity="1.000000" stroke="none"
          d="
M422.936462,214.132629
    C461.242767,214.089249 499.549103,214.038147 537.855408,214.005569
    C558.508240,213.988007 579.162231,214.112793 599.813049,213.909912
    C604.014221,213.868637 605.287781,215.140503 605.102417,219.269745
    C604.811646,225.749313 605.086609,232.254303 605.138550,239.276978
    C605.155029,239.805435 605.028442,239.972916 604.561523,239.903564
    C602.433228,239.798370 600.771912,239.731354 599.110596,239.731201
    C542.232056,239.725906 485.353546,239.729309 428.475037,239.716476
    C426.653961,239.716080 424.832947,239.558624 423.008514,239.038696
    C422.982239,230.446198 422.959351,222.289413 422.936462,214.132629
z"/>
    <path fill="#13172D" opacity="1.000000" stroke="none"
          d="
M605.005920,295.004272
    C605.009216,301.826202 604.762817,308.660706 605.106445,315.465454
    C605.324280,319.780090 604.131226,321.155029 599.608032,321.126770
    C567.662720,320.927185 535.715576,321.025085 503.768982,321.019958
    C477.146942,321.015656 450.524902,321.000305 423.438568,320.501282
    C422.977539,313.854492 422.975677,307.696289 422.985565,301.538116
    C422.996002,295.025238 423.000885,295.015320 429.746979,295.014679
    C488.166626,295.009033 546.586243,295.007233 605.005920,295.004272
z"/>
    <path fill="#14182E" opacity="1.000000" stroke="none"
          d="
M309.000885,29.136002
    C309.860809,29.251015 310.720703,29.366028 311.790802,30.204351
    C312.000244,39.618111 311.999512,48.308559 311.530304,57.006001
    C260.042267,57.010204 209.022675,57.007420 157.898285,56.787918
    C157.601074,56.299290 157.346420,56.111996 157.029541,56.009323
    C157.024216,47.986736 157.018890,39.964146 157.491928,31.471928
    C206.488571,31.001480 255.006882,31.020947 303.524963,30.921206
    C305.351471,30.917450 307.175629,29.757280 309.000885,29.136002
z"/>
    <path fill="#14182E" opacity="1.000000" stroke="none"
          d="
M342.057770,81.937798
    C350.833099,81.937798 359.608429,81.937798 369.064758,81.937798
    C369.064758,116.676544 369.064758,151.707565 369.020050,187.566025
    C368.966736,188.648331 368.958130,188.903183 368.538391,188.914536
    C359.749268,188.599548 351.371307,188.528076 342.919525,188.076965
    C342.554596,185.754822 342.012543,183.812683 342.009705,181.869736
    C341.960999,148.586426 341.978943,115.303040 342.001465,81.999512
    C342.020721,81.979370 342.057770,81.937798 342.057770,81.937798
z"/>
    <path fill="#282A3B" opacity="1.000000" stroke="none"
          d="
M368.949524,189.158051
    C368.958130,188.903183 368.966736,188.648331 369.027344,188.011368
    C372.848999,187.576645 376.620422,187.428329 380.387665,187.500351
    C383.659058,187.562866 386.924194,188.012360 390.194763,188.048904
    C397.995453,188.136063 405.797852,188.053009 413.599335,188.089813
    C421.709595,188.128067 420.864960,187.254440 420.914795,195.168030
    C420.944061,199.815628 420.811218,204.467621 420.983002,209.109055
    C421.039795,210.643524 421.820862,212.151215 422.603638,213.901886
    C422.959351,222.289413 422.982239,230.446198 422.710236,239.150864
    C421.990692,239.681671 421.566010,239.664597 421.030640,239.214325
    C420.854309,232.129257 420.653931,225.474808 420.780243,218.826584
    C420.842896,215.529907 420.022797,213.909225 416.342163,214.036499
    C409.859039,214.260681 403.359589,214.222656 396.873291,214.053101
    C393.813660,213.973129 392.821808,215.058075 392.875000,218.097244
    C393.000122,225.247131 392.809723,232.402542 392.302673,239.643173
    C384.218842,239.839020 376.579376,239.947403 369.004517,239.587097
    C369.029266,222.464951 368.989410,205.811493 368.949524,189.158051
z"/>
    <path fill="#14182E" opacity="1.000000" stroke="none"
          d="
M104.995689,81.974998
    C106.710205,81.966904 108.424721,81.958817 110.656166,82.355400
    C115.712318,83.352249 120.251549,83.944420 125.000305,84.563927
    C125.000305,117.900505 125.000305,151.449646 124.531769,184.999207
    C119.411270,184.999710 114.737785,184.722092 110.113609,185.080597
    C105.780624,185.416519 104.903603,183.651413 104.920692,179.665894
    C105.060394,147.102753 104.997208,114.538742 104.995689,81.974998
z"/>
    <path fill="#444445" opacity="1.000000" stroke="none"
          d="
M157.218048,400.059784
    C156.986893,392.238678 157.173752,384.461212 156.913101,376.698761
    C156.785873,372.909698 158.113663,371.835114 161.756882,371.976807
    C168.195404,372.227264 174.651169,372.034515 182.033081,372.038483
    C191.919632,372.135864 200.872833,372.222046 209.869446,372.637634
    C210.276779,373.977600 210.640717,374.988129 210.996338,376.332581
    C210.994110,377.111816 211.000214,377.557129 210.712830,378.297424
    C210.614990,384.060822 210.810623,389.529205 210.996674,395.395447
    C210.971878,396.853180 210.956696,397.912964 210.561981,399.142029
    C208.228745,399.540466 206.276474,399.954437 204.321106,399.969635
    C188.854660,400.089935 173.387634,400.134308 157.920776,400.201996
    C157.920776,400.201996 157.451797,400.109589 157.218048,400.059784
z"/>
    <path fill="#13172D" opacity="1.000000" stroke="none"
          d="
M76.034760,292.986145
    C68.886314,292.995850 61.734261,292.875275 54.591022,293.073029
    C51.271492,293.164948 49.857857,292.331390 49.902771,288.665009
    C50.084003,273.871521 50.087437,259.073090 49.902031,244.279694
    C49.855476,240.564865 51.357712,239.826996 54.626678,239.916336
    C61.437683,240.102493 68.257179,239.978104 75.558441,240.457031
    C76.046005,245.407837 75.930984,249.886902 76.083313,254.356857
    C76.238579,258.913147 76.656754,263.460480 76.972656,268.478851
    C76.998772,276.624847 77.012047,284.303741 76.807304,292.089935
    C76.341026,292.415649 76.156181,292.678619 76.034760,292.986145
z"/>
    <path fill="#14182D" opacity="1.000000" stroke="none"
          d="
M78.002029,238.958603
    C77.678551,224.243408 77.280899,209.529282 77.068687,194.812485
    C76.985626,189.051971 78.237328,188.029419 84.174919,188.017685
    C89.811905,188.006546 95.448929,188.016937 101.692482,188.248245
    C102.766731,188.659622 103.234436,188.840637 103.668846,189.488464
    C103.570587,206.308609 103.505608,222.661911 103.472107,239.016251
    C103.503593,239.017273 103.505081,238.954285 103.056046,239.023926
    C100.824600,239.330017 99.046570,239.725006 97.258987,239.774414
    C90.846916,239.951614 84.431625,240.011932 78.020187,239.826874
    C78.015884,239.344421 78.008957,239.151520 78.002029,238.958603
z"/>
    <path fill="#13172D" opacity="1.000000" stroke="none"
          d="
M605.210449,239.716309
    C612.554321,239.742249 619.842896,239.942184 627.131042,239.927811
    C629.793579,239.922546 631.048462,240.635162 631.028870,243.562469
    C630.930908,258.159363 631.003845,272.757385 630.943542,287.354706
    C630.938232,288.640381 630.405029,289.923859 629.571045,291.620941
    C621.108765,292.036896 613.192383,292.040314 605.229126,291.574493
    C605.130920,274.061157 605.079712,257.017029 605.028442,239.972916
    C605.028442,239.972916 605.155029,239.805435 605.210449,239.716309
z"/>
    <path fill="#141629" opacity="1.000000" stroke="none"
          d="
M311.998779,56.999008
    C311.999512,48.308559 312.000244,39.618111 312.003296,30.457653
    C312.664948,31.453232 313.839020,32.900063 313.893219,34.387703
    C314.111481,40.376816 314.100983,46.381695 313.938812,52.374355
    C313.844757,55.850338 315.262695,57.146111 318.672150,57.063271
    C324.665619,56.917645 330.674438,57.226791 336.659058,56.954781
    C340.912292,56.761467 342.202972,58.472725 342.045197,62.527164
    C341.805786,68.680664 342.011566,74.851486 342.042969,81.476379
    C342.057770,81.937798 342.020721,81.979370 341.588898,81.938141
    C333.754791,81.599236 326.348755,81.014290 318.951569,81.110435
    C314.435364,81.169128 312.803314,79.834503 312.904541,75.175957
    C313.035980,69.126396 312.339111,63.058823 311.998779,56.999008
z"/>
    <path fill="#282A3B" opacity="1.000000" stroke="none"
          d="
M605.276062,292.043762
    C613.192383,292.040314 621.108765,292.036896 629.488159,292.033936
    C628.467285,292.653564 627.011780,293.717926 625.494507,293.814789
    C618.923157,294.234222 612.333740,294.371033 605.378418,294.807434
    C546.586243,295.007233 488.166626,295.009033 429.746979,295.014679
    C423.000885,295.015320 422.996002,295.025238 422.985565,301.538116
    C422.975677,307.696289 422.977539,313.854492 422.968201,320.474152
    C422.208588,321.323242 421.454987,321.710846 420.348755,321.902954
    C420.010193,321.535461 420.024261,321.363464 420.141693,320.778320
    C420.496887,311.394257 420.748779,302.423279 421.144531,293.358246
    C421.288391,293.264160 421.308990,292.925690 421.752808,292.962372
    C481.124969,292.978851 540.053284,292.967865 598.981567,292.900879
    C601.080078,292.898499 603.177917,292.341980 605.276062,292.043762
z"/>
    <path fill="#14182E" opacity="1.000000" stroke="none"
          d="
M129.943924,79.953003
    C129.758972,73.165939 129.574020,66.378883 130.145889,59.293186
    C139.588135,58.997002 148.273544,58.999451 156.972961,59.470020
    C156.989960,64.908913 156.828110,69.887039 157.049210,74.848099
    C157.219513,78.669777 155.897125,80.235573 151.921448,80.111969
    C144.638046,79.885529 137.342484,80.049919 130.025742,80.025925
    C129.999481,80.000504 129.943924,79.953003 129.943924,79.953003
z"/>
    <path fill="#14182E" opacity="1.000000" stroke="none"
          d="
M125.000305,184.998779
    C125.000305,151.449646 125.000305,117.900505 125.000305,84.563927
    C120.251549,83.944420 115.712318,83.352249 111.084618,82.361465
    C116.330994,81.958832 121.665855,81.954826 127.732834,81.971634
    C128.644073,81.996407 128.823181,82.000366 129.006638,82.472534
    C129.011932,115.825562 129.043381,148.710495 128.930801,181.594910
    C128.924667,183.385925 127.715355,185.172791 127.003571,186.645935
    C126.294113,185.886444 125.647209,185.442612 125.000305,184.998779
z"/>
    <path fill="#141629" opacity="1.000000" stroke="none"
          d="
M308.533813,29.096455
    C307.175629,29.757280 305.351471,30.917450 303.524963,30.921206
    C255.006882,31.020947 206.488571,31.001480 157.506317,31.003822
    C158.659393,30.346172 160.275375,29.114138 161.893677,29.111061
    C210.617889,29.018490 259.342316,29.047213 308.533813,29.096455
z"/>
    <path fill="#141629" opacity="1.000000" stroke="none"
          d="
M124.531769,184.999207
    C125.647209,185.442612 126.294113,185.886444 126.959503,186.896179
    C126.980759,187.798080 126.983543,188.134064 126.538361,188.447723
    C118.782852,188.469284 111.475327,188.513138 104.148285,188.140045
    C104.084129,187.448471 104.039482,187.173813 103.994843,186.899170
    C103.666855,184.963852 103.056679,183.029083 103.053017,181.093155
    C102.993797,149.789413 102.993301,118.485504 103.062752,87.181816
    C103.066460,85.508858 103.806473,83.837547 104.599701,82.070236
    C104.997208,114.538742 105.060394,147.102753 104.920692,179.665894
    C104.903603,183.651413 105.780624,185.416519 110.113609,185.080597
    C114.737785,184.722092 119.411270,184.999710 124.531769,184.999207
z"/>
    <path fill="#111529" opacity="1.000000" stroke="none"
          d="
M158.050293,400.571289
    C173.387634,400.134308 188.854660,400.089935 204.321106,399.969635
    C206.276474,399.954437 208.228745,399.540466 211.037003,399.152222
    C226.509125,398.995117 241.126907,398.957947 255.743988,399.042603
    C257.847137,399.054779 259.946869,399.653687 262.259918,400.085999
    C262.745819,400.369873 262.937134,400.613739 263.045593,400.922607
    C229.965439,401.271393 196.885437,401.637878 163.804733,401.922577
    C161.932709,401.938660 160.054932,401.283386 158.050293,400.571289
z"/>
    <path fill="#111529" opacity="1.000000" stroke="none"
          d="
M313.117859,398.981445
    C321.054810,398.983734 328.992523,398.923889 336.928406,399.017334
    C340.340637,399.057526 339.998749,396.788574 339.998657,394.609528
    C339.998077,380.465942 339.958710,366.322083 340.052185,352.179138
    C340.063202,350.510834 340.804962,348.847321 341.604584,347.090881
    C341.993683,363.115723 341.861725,379.232849 342.060669,395.345917
    C342.114624,399.713867 340.696014,401.223267 336.327454,401.067444
    C328.528839,400.789276 320.713104,400.990631 312.554199,400.706451
    C312.508514,399.941467 312.813171,399.461456 313.117859,398.981445
z"/>
    <path fill="#111529" opacity="1.000000" stroke="none"
          d="
M104.001175,294.986877
    C102.713768,295.657715 101.446480,296.857880 100.135460,296.907715
    C94.481049,297.122711 88.811295,297.101105 83.152313,296.958923
    C80.305977,296.887451 78.755951,297.574646 78.966904,300.817963
    C79.385910,307.260010 79.596611,313.715576 79.947029,320.580322
    C79.007912,319.412079 77.232224,317.864441 77.158836,316.239868
    C76.851883,309.444244 77.055695,302.625549 77.418335,295.360748
    C78.515068,294.647247 79.265808,294.388275 80.481903,294.090576
    C87.963478,294.066772 94.979698,294.081696 102.170143,294.327362
    C102.896637,294.701019 103.448906,294.843933 104.001175,294.986877
z"/>
    <path fill="#443541" opacity="1.000000" stroke="none"
          d="
M313.066589,398.988586
    C312.813171,399.461456 312.508514,399.941467 312.084198,400.676636
    C295.967651,400.935760 279.970795,400.939728 263.509766,400.933167
    C262.937134,400.613739 262.745819,400.369873 262.254852,399.837585
    C262.038025,399.484192 262.080322,398.988739 262.543945,398.992310
    C279.643188,399.003357 296.278809,399.010864 312.914429,399.018372
    C312.914429,399.018372 313.015381,398.995728 313.066589,398.988586
z"/>
    <path fill="#443541" opacity="1.000000" stroke="none"
          d="
M77.709518,239.007156
    C78.008957,239.151520 78.015884,239.344421 78.026199,240.285461
    C78.022324,246.819733 78.131432,252.609283 77.961998,258.390656
    C77.867798,261.604706 77.309151,264.805145 76.959824,268.011719
    C76.656754,263.460480 76.238579,258.913147 76.083313,254.356857
    C75.930984,249.886902 76.046005,245.407837 76.027802,240.463699
    C76.480270,239.681656 76.948639,239.368683 77.709518,239.007156
z"/>
    <path fill="#141629" opacity="1.000000" stroke="none"
          d="
M156.958969,59.001900
    C148.273544,58.999451 139.588135,58.997002 130.429245,58.986652
    C131.431000,58.323376 132.878952,57.179684 134.386063,57.095497
    C141.667526,56.688801 148.964905,56.567131 156.643097,56.176857
    C157.346420,56.111996 157.601074,56.299290 157.790192,57.048325
    C157.510910,58.017593 157.234940,58.509747 156.958969,59.001900
z"/>
    <path fill="#111529" opacity="1.000000" stroke="none"
          d="
M130.059601,399.415222
    C138.449951,399.158234 146.942932,399.294678 155.727325,399.736755
    C147.399887,399.964447 138.781052,399.886536 130.059601,399.415222
z"/>
    <path fill="#443541" opacity="1.000000" stroke="none"
          d="
M80.016541,294.129303
    C79.265808,294.388275 78.515068,294.647247 77.451614,294.884644
    C76.834381,294.408508 76.529861,293.953888 76.130051,293.242737
    C76.156181,292.678619 76.341026,292.415649 77.063995,292.123932
    C77.879524,292.078125 78.220360,292.105621 78.883362,292.295044
    C79.445099,292.476715 79.684662,292.496490 79.854980,292.783508
    C79.862671,293.410278 79.939606,293.769775 80.016541,294.129303
z"/>
    <path fill="#111529" opacity="1.000000" stroke="none"
          d="
M420.038361,321.191437
    C420.024261,321.363464 420.010193,321.535461 420.020996,321.966949
    C420.040436,322.619202 420.035065,323.011932 420.023438,323.700684
    C419.461670,323.837250 418.906128,323.677795 418.199890,323.050232
    C418.086334,322.279968 418.099762,321.976776 418.389709,321.510925
    C419.139496,321.296661 419.588928,321.244049 420.038361,321.191437
z"/>
    <path fill="#111529" opacity="1.000000" stroke="none"
          d="
M126.209976,321.259003
    C126.970131,321.108002 127.940880,321.214417 128.962189,321.640289
    C128.148697,321.811981 127.284630,321.664185 126.209976,321.259003
z"/>
    <path fill="#141629" opacity="1.000000" stroke="none"
          d="
M129.002304,82.004333
    C128.823181,82.000366 128.644073,81.996407 128.195816,81.976845
    C128.391312,81.329369 128.855972,80.697502 129.632263,80.009323
    C129.943924,79.953003 129.999481,80.000504 129.993820,80.317734
    C129.659531,81.091415 129.330917,81.547874 129.002304,82.004333
z"/>
    <path fill="#443541" opacity="1.000000" stroke="none"
          d="
M103.702652,186.966904
    C104.039482,187.173813 104.084129,187.448471 104.115845,188.340027
    C104.102928,188.956940 103.702141,189.021637 103.702133,189.021637
    C103.234436,188.840637 102.766731,188.659622 102.162750,188.251587
    C102.487808,187.694580 102.949135,187.364609 103.702652,186.966904
z"/>
    <path fill="#444545" opacity="1.000000" stroke="none"
          d="
M312.962097,398.549561
    C296.278809,399.010864 279.643188,399.003357 262.515442,398.525421
    C262.017822,389.353851 262.012329,380.652710 262.472626,372.009338
    C271.622559,372.179230 280.306702,372.291351 289.054077,372.653625
    C289.751709,372.672455 290.386139,372.441162 291.397430,372.161957
    C298.509735,372.093872 305.245178,372.073669 311.980591,372.053497
    C312.333893,376.933563 312.794952,381.808960 313.005768,386.695160
    C313.169250,390.483368 313.019989,394.285065 312.962097,398.549561
z"/>
    <path fill="#D8D9E0" opacity="1.000000" stroke="none"
          d="
M317.283722,321.258972
    C316.631683,321.329315 315.979675,321.399658 314.615967,321.597656
    C313.592041,321.844421 313.268799,321.905731 312.932678,321.447296
    C312.969269,317.832428 313.146667,314.673706 313.016388,311.527740
    C312.771393,305.611481 312.348755,299.702545 312.182068,293.557892
    C312.685516,293.094757 313.006866,292.864319 313.685059,292.801056
    C322.321228,293.088684 330.600494,293.209167 339.158691,293.577118
    C340.158691,293.877197 340.879761,293.929810 341.629608,294.450409
    C341.642761,303.573639 341.627106,312.228912 341.611450,320.884155
    C341.611450,320.884155 341.160583,320.889404 340.709869,321.025818
    C339.502075,321.209869 338.744965,321.257507 337.547516,321.135315
    C330.499329,321.063324 323.891541,321.161163 317.283722,321.258972
z"/>
    <path fill="#E9B142" opacity="1.000000" stroke="none"
          d="
M420.141693,320.778320
    C419.588928,321.244049 419.139496,321.296661 417.949280,321.311584
    C409.794861,321.388916 402.381195,321.503906 394.967529,321.618896
    C394.527161,321.444763 394.086792,321.270660 393.290161,320.587769
    C392.838470,311.505798 392.743103,302.932617 392.773438,294.043152
    C392.952972,293.506744 393.006836,293.286591 393.525330,293.052429
    C402.993469,293.176392 411.997070,293.314362 421.000641,293.452332
    C420.748779,302.423279 420.496887,311.394257 420.141693,320.778320
z"/>
    <path fill="#111529" opacity="1.000000" stroke="none"
          d="
M392.647705,294.359436
    C392.743103,302.932617 392.838470,311.505798 392.934784,320.549164
    C389.912842,321.212250 389.970062,319.176575 389.986481,317.055664
    C390.027649,311.733551 389.886627,306.407532 390.043243,301.089722
    C390.128906,298.182220 389.300323,296.909882 386.130646,296.945038
    C373.657684,297.083313 361.181671,297.068481 348.708160,296.957153
    C345.319031,296.926910 343.844330,298.120087 343.961426,301.609680
    C344.128601,306.593842 344.114349,311.591919 343.931458,316.575043
    C343.878937,318.006287 342.977966,319.406403 342.038757,320.852478
    C341.627106,312.228912 341.642761,303.573639 342.128906,294.496887
    C359.282196,294.170074 375.964966,294.264771 392.647705,294.359436
z"/>
    <path fill="#14182D" opacity="1.000000" stroke="none"
          d="
M311.984985,371.626099
    C305.245178,372.073669 298.509735,372.093872 291.138611,372.093689
    C290.327393,372.043457 290.151855,372.013550 289.979126,371.516052
    C289.977356,363.114014 289.972809,355.179596 290.419739,347.102112
    C298.211487,346.827728 305.551727,346.696442 313.240631,346.650940
    C314.059479,346.638550 314.529694,346.540314 314.999908,346.442139
    C315.523163,351.472870 313.125458,353.435028 308.260956,353.019562
    C304.325684,352.319562 300.374329,352.356323 296.432861,352.386047
    C295.321198,352.394409 293.306458,353.618439 293.261047,354.377838
    C292.970245,359.244354 293.112701,364.136780 293.112701,368.005463
    C299.089111,368.005463 303.956696,367.808563 308.786041,368.151031
    C309.920135,368.231445 310.925018,370.134308 311.984985,371.626099
z"/>
    <path fill="#AA6D66" opacity="1.000000" stroke="none"
          d="
M315.101227,346.427795
    C314.529694,346.540314 314.059479,346.638550 313.216492,346.216370
    C312.873962,337.767029 312.904266,329.838135 312.934570,321.909210
    C313.268799,321.905731 313.592041,321.844421 314.148010,321.750275
    C314.486755,322.583130 314.581818,323.391022 314.703583,325.061584
    C315.012482,332.694000 315.294708,339.463806 315.576904,346.233612
    C315.576904,346.233612 315.202545,346.413513 315.101227,346.427795
z"/>
    <path fill="#282A3B" opacity="1.000000" stroke="none"
          d="
M395.120178,321.959198
    C402.381195,321.503906 409.794861,321.388916 417.648956,321.473236
    C418.099762,321.976776 418.086334,322.279968 418.027863,322.810730
    C410.428680,322.792725 402.850769,322.546112 395.120178,321.959198
z"/>
    <path fill="#AA6D66" opacity="1.000000" stroke="none"
          d="
M317.352234,321.687805
    C323.891541,321.161163 330.499329,321.063324 337.584656,321.401062
    C337.951782,322.176117 337.841339,322.515594 337.730896,322.855103
    C330.960876,322.608948 324.190796,322.362793 317.352234,321.687805
z"/>
    <path fill="#111529" opacity="1.000000" stroke="none"
          d="
M315.942749,345.955719
    C315.294708,339.463806 315.012482,332.694000 314.798035,325.459686
    C315.547729,325.564941 316.825439,326.140045 316.820404,326.703644
    C316.763733,333.029419 316.509613,339.353363 315.942749,345.955719
z"/>
    <path fill="#111529" opacity="1.000000" stroke="none"
          d="
M338.041168,322.989441
    C337.841339,322.515594 337.951782,322.176117 338.025024,321.570923
    C338.744965,321.257507 339.502075,321.209869 340.627563,321.235718
    C340.114441,321.914032 339.232941,322.518890 338.041168,322.989441
z"/>
    <path fill="#FDFCFC" opacity="1.000000" stroke="none"
          d="
M182.046173,347.275635
    C174.333603,347.166077 166.621017,347.056519 158.305267,346.775391
    C157.411758,346.419312 157.121399,346.234833 156.868347,345.579895
    C156.981125,328.056000 157.056610,311.002563 157.590332,293.922485
    C160.032974,293.817078 162.017899,293.749451 164.001678,293.657379
    C170.261215,293.367004 176.520340,293.067474 183.252655,292.872437
    C196.266724,293.061188 208.807739,293.149078 221.303192,293.680847
    C221.159439,311.659180 221.061234,329.193665 220.503876,346.814270
    C207.378540,347.025482 194.712357,347.150543 182.046173,347.275635
z"/>
    <path fill="#010101" opacity="1.000000" stroke="none"
          d="
M182.061752,347.726410
    C194.712357,347.150543 207.378540,347.025482 220.950256,346.935120
    C226.155502,347.089539 230.455185,347.209229 234.766693,347.771332
    C234.742126,356.138977 234.705765,364.064178 234.391144,371.975952
    C233.742615,371.990601 233.372330,372.018677 232.533524,372.037567
    C225.358978,372.069763 218.652969,372.111145 211.591232,372.130829
    C210.765686,372.175507 210.295868,372.241852 209.826035,372.308228
    C200.872833,372.222046 191.919632,372.135864 182.503494,372.008667
    C182.052826,364.037476 182.065079,356.107330 182.061752,347.726410
z"/>
    <path fill="#111529" opacity="1.000000" stroke="none"
          d="
M157.132111,293.949097
    C157.056610,311.002563 156.981125,328.056000 156.654266,345.654175
    C156.186386,346.423553 156.048569,346.689056 155.989441,346.995422
    C155.325897,345.210358 154.094269,343.428375 154.084671,341.639801
    C153.956543,317.736969 153.999313,293.833252 154.337051,269.453674
    C155.349030,269.015076 156.023544,269.052551 156.797058,269.543457
    C156.974731,277.980957 157.053421,285.965027 157.132111,293.949097
z"/>
    <path fill="#B46962" opacity="1.000000" stroke="none"
          d="
M80.481895,294.090576
    C79.939606,293.769775 79.862671,293.410278 80.313171,292.665649
    C83.661812,292.231262 86.488914,292.280151 89.302895,292.110901
    C94.215889,291.815399 99.120819,291.385651 104.495026,291.009277
    C106.948105,291.004700 108.936615,291.049225 110.922211,290.992249
    C116.018250,290.845978 123.274155,292.598938 125.639572,289.969696
    C128.354706,286.951721 126.541039,280.014954 127.060471,274.817047
    C127.480286,270.616089 125.595573,269.785248 121.896698,269.934723
    C115.944946,270.175171 109.976212,269.995605 103.773514,269.809021
    C103.222321,268.886841 102.912254,268.149078 102.754669,267.256897
    C102.907143,267.102478 103.216248,266.797760 103.570251,267.004456
    C109.352654,267.459717 114.786888,267.622406 120.207207,267.990173
    C123.268089,268.197815 126.306091,268.742767 129.281158,269.563965
    C129.386292,273.042572 129.564682,276.092987 129.743073,279.143372
    C129.699158,279.527649 129.655243,279.911926 129.486938,280.915344
    C129.442062,283.341614 129.521591,285.148773 129.601135,286.955902
    C129.503235,287.780487 129.405319,288.605103 129.290253,290.101318
    C129.256683,291.184967 129.240280,291.596954 128.817749,292.150818
    C122.982147,292.515869 117.547363,292.654419 112.125092,292.993225
    C108.738945,293.204834 105.371674,293.718506 101.995926,294.096619
    C94.979698,294.081696 87.963478,294.066772 80.481895,294.090576
z"/>
    <path fill="#443541" opacity="1.000000" stroke="none"
          d="
M129.354401,269.135803
    C126.306091,268.742767 123.268089,268.197815 120.207207,267.990173
    C114.786888,267.622406 109.352654,267.459717 103.503479,266.557922
    C103.223503,256.921234 103.364288,247.937759 103.505081,238.954285
    C103.505081,238.954285 103.503593,239.017273 103.777367,239.087646
    C104.371559,239.418671 104.691986,239.679352 105.001877,240.412689
    C104.978859,247.853195 105.093513,254.824585 104.897102,261.787201
    C104.806908,264.984436 105.789909,266.227173 109.116341,266.115387
    C115.745438,265.892548 122.386208,266.017059 129.395416,266.187988
    C131.532852,266.589600 133.293655,266.946564 135.061783,266.987640
    C142.272064,267.155121 149.484573,267.225922 156.746826,267.626526
    C156.764267,268.310455 156.731155,268.700226 156.698044,269.089996
    C156.023544,269.052551 155.349030,269.015076 154.336655,268.984497
    C146.987411,269.308624 139.976028,269.625916 132.312378,269.690857
    C130.891525,269.337616 130.122955,269.236694 129.354401,269.135803
z"/>
    <path fill="#443541" opacity="1.000000" stroke="none"
          d="
M102.170143,294.327393
    C105.371674,293.718506 108.738945,293.204834 112.125092,292.993225
    C117.547363,292.654419 122.982147,292.515869 129.014069,292.103638
    C129.616501,291.914642 130.019913,291.874115 130.019913,291.874115
    C128.458405,292.899780 126.936707,294.731476 125.328445,294.810913
    C118.545685,295.145996 111.737106,294.958618 104.469574,294.974609
    C103.448906,294.843933 102.896637,294.701019 102.170143,294.327393
z"/>
    <path fill="#111529" opacity="1.000000" stroke="none"
          d="
M129.281158,269.563995
    C130.122955,269.236694 130.891525,269.337616 131.846924,269.675446
    C131.486359,272.820007 130.938980,275.727692 130.067337,278.889343
    C129.564682,276.092987 129.386292,273.042572 129.281158,269.563995
z"/>
    <path fill="#111529" opacity="1.000000" stroke="none"
          d="
M129.905197,286.826172
    C129.521591,285.148773 129.442062,283.341614 129.551941,281.199890
    C129.897308,282.808990 130.053284,284.752686 129.905197,286.826172
z"/>
    <path fill="#443541" opacity="1.000000" stroke="none"
          d="
M156.145416,347.208801
    C156.048569,346.689056 156.186386,346.423553 156.616959,346.124634
    C157.121399,346.234833 157.411758,346.419312 157.837494,346.828003
    C157.415710,347.175476 156.858551,347.298798 156.145416,347.208801
z"/>
    <path fill="#111529" opacity="1.000000" stroke="none"
          d="
M130.003204,291.656250
    C130.019913,291.874115 129.616501,291.914642 129.420197,291.961792
    C129.240280,291.596954 129.256683,291.184967 129.422485,290.502686
    C129.710083,290.634399 129.848297,291.036377 130.003204,291.656250
z"/>
    <path fill="#DEDFE7" opacity="1.000000" stroke="none"
          d="
M605.229126,291.574524
    C603.177917,292.341980 601.080078,292.898499 598.981567,292.900879
    C540.053284,292.967865 481.124969,292.978851 421.656921,292.423401
    C420.988770,274.632507 420.860352,257.417297 420.861572,240.083588
    C420.991272,239.965118 421.141357,239.647522 421.141357,239.647522
    C421.566010,239.664597 421.990692,239.681671 422.713623,239.586578
    C424.832947,239.558624 426.653961,239.716080 428.475037,239.716476
    C485.353546,239.729309 542.232056,239.725906 599.110596,239.731201
    C600.771912,239.731354 602.433228,239.798370 604.561523,239.903564
    C605.079712,257.017029 605.130920,274.061157 605.229126,291.574524
z"/>
    <path fill="#441515" opacity="1.000000" stroke="none"
          d="
M129.006638,82.472534
    C129.330917,81.547874 129.659531,81.091415 130.020081,80.343155
    C137.342484,80.049919 144.638046,79.885529 151.921448,80.111969
    C155.897125,80.235573 157.219513,78.669777 157.049210,74.848099
    C156.828110,69.887039 156.989960,64.908913 156.972961,59.470016
    C157.234940,58.509747 157.510910,58.017593 157.894989,57.265038
    C209.022675,57.007420 260.042267,57.010204 311.530334,57.006001
    C312.339111,63.058823 313.035980,69.126396 312.904541,75.175957
    C312.803314,79.834503 314.435364,81.169128 318.951569,81.110435
    C326.348755,81.014290 333.754791,81.599236 341.569641,81.958282
    C341.978943,115.303040 341.960999,148.586426 342.009705,181.869736
    C342.012543,183.812683 342.554596,185.754822 342.562134,188.384094
    C342.062164,190.191666 341.658600,191.312317 341.657593,192.433334
    C341.643616,207.901855 341.684937,223.370422 341.268768,238.889862
    C333.188538,239.062210 325.551147,239.140579 317.916473,239.327713
    C315.112762,239.396423 314.658112,237.822083 314.684875,235.523773
    C314.748810,230.038391 314.811707,224.548279 314.632629,219.068008
    C314.586761,217.665268 313.639404,216.291992 313.039246,214.710663
    C312.972321,214.516144 312.955353,214.105057 312.987946,213.630783
    C313.658661,203.776352 314.667145,194.403488 314.851776,185.014420
    C315.162170,169.229126 314.975372,153.433365 314.885010,137.642670
    C314.879974,136.765198 313.849243,135.893600 312.814270,134.932190
    C306.176849,134.785706 300.018524,134.811630 293.866302,134.630447
    C290.845398,134.541489 289.731659,135.702988 289.823120,138.733017
    C289.993744,144.388504 289.773712,150.055283 289.916046,155.712326
    C289.992279,158.742325 289.251587,160.254654 285.773224,160.244354
    C252.808853,160.146667 219.843979,160.155563 186.879486,160.234329
    C183.545944,160.242294 182.550797,158.949524 182.661484,155.769363
    C182.858261,150.115509 182.625412,144.447662 182.765335,138.790451
    C182.836655,135.907349 182.029297,134.509079 178.839722,134.615784
    C171.857712,134.849319 164.866531,134.809738 157.494980,134.973419
    C156.846954,136.817795 156.363022,138.569382 156.354248,140.323364
    C156.289459,153.275177 156.291153,166.227615 156.350006,179.179504
    C156.358810,181.117279 156.775330,183.053192 156.990753,185.243103
    C156.994308,185.664429 157.010361,185.832626 156.923859,186.344147
    C156.900772,187.395782 156.980240,188.104126 157.038361,189.292419
    C157.059814,197.926682 157.102600,206.080978 157.100830,214.686295
    C156.847733,223.349930 156.639175,231.562546 155.943726,239.623413
    C146.669632,239.296799 137.882416,239.121902 129.132202,238.482819
    C129.174316,223.272324 129.253662,208.525177 129.087524,193.780792
    C129.067490,192.002869 127.719063,190.239914 126.986328,188.470032
    C126.983543,188.134064 126.980759,187.798080 127.022041,187.211853
    C127.715355,185.172791 128.924667,183.385925 128.930801,181.594910
    C129.043381,148.710495 129.011932,115.825562 129.006638,82.472534
z"/>
    <path fill="#FDC1A0" opacity="1.000000" stroke="none"
          d="
M341.712708,238.838989
    C341.684937,223.370422 341.643616,207.901855 341.657593,192.433334
    C341.658600,191.312317 342.062164,190.191666 342.635925,188.763718
    C351.371307,188.528076 359.749268,188.599548 368.538391,188.914536
    C368.989410,205.811493 369.029266,222.464951 369.029510,239.561157
    C368.989899,240.003937 369.044128,239.956467 368.578796,239.872894
    C359.412689,239.685043 350.711914,239.580780 342.037872,239.269699
    C342.064636,239.062881 341.712738,238.838989 341.712708,238.838989
z"/>
    <path fill="#FDC2A0" opacity="1.000000" stroke="none"
          d="
M368.964905,240.029861
    C376.579376,239.947403 384.218842,239.839020 392.366943,239.811829
    C392.875580,239.893005 393.046265,240.211075 393.024536,240.660034
    C392.927979,258.160126 392.853149,275.211243 392.332947,292.221771
    C375.158997,292.115173 358.430420,292.049164 341.686371,291.516113
    C341.698090,283.693390 341.725281,276.337708 342.120483,268.900543
    C350.219604,268.819244 357.951294,268.870087 365.681396,268.780212
    C367.391388,268.760345 370.088135,269.508759 369.275238,265.534302
    C369.199799,256.695343 369.121948,248.325897 369.044128,239.956467
    C369.044128,239.956467 368.989899,240.003937 368.964905,240.029861
z"/>
    <path fill="#E9B142" opacity="1.000000" stroke="none"
          d="
M392.811279,239.724365
    C392.809723,232.402542 393.000122,225.247131 392.875000,218.097244
    C392.821808,215.058075 393.813660,213.973129 396.873291,214.053101
    C403.359589,214.222656 409.859039,214.260681 416.342163,214.036499
    C420.022797,213.909225 420.842896,215.529907 420.780243,218.826584
    C420.653931,225.474808 420.854309,232.129257 421.030640,239.214325
    C421.141357,239.647522 420.991272,239.965118 420.430725,239.991852
    C410.928894,240.082733 401.987579,240.146912 393.046265,240.211090
    C393.046265,240.211075 392.875580,239.893005 392.811279,239.724365
z"/>
    <path fill="#14182E" opacity="1.000000" stroke="none"
          d="
M233.002045,372.046753
    C233.372330,372.018677 233.742615,371.990601 234.894135,371.998535
    C244.467361,372.023315 253.259338,372.012146 262.026489,372.001434
    C262.001617,372.001892 262.006836,371.951599 262.006836,371.951599
    C262.012329,380.652710 262.017822,389.353851 262.051819,398.521851
    C262.080322,398.988739 262.038025,399.484192 262.043091,399.732605
    C259.946869,399.653687 257.847137,399.054779 255.743988,399.042603
    C241.126907,398.957947 226.509125,398.995117 211.416534,398.983002
    C210.956696,397.912964 210.971878,396.853180 211.291626,395.101440
    C211.399567,388.940491 211.202927,383.471466 211.006302,378.002411
    C211.000214,377.557129 210.994110,377.111816 211.241180,376.165771
    C211.663116,375.109985 211.831863,374.554993 212.469116,374.000000
    C218.347122,373.999847 223.761475,374.122711 229.162643,373.910339
    C230.464874,373.859161 231.723419,372.697662 233.002045,372.046753
z"/>
    <path fill="#1F1F33" opacity="1.000000" stroke="none"
          d="
M210.712830,378.297424
    C211.202927,383.471466 211.399567,388.940491 211.301239,394.703552
    C210.810623,389.529205 210.614990,384.060822 210.712830,378.297424
z"/>
    <path fill="#1F1F33" opacity="1.000000" stroke="none"
          d="
M212.000610,374.000000
    C211.831863,374.554993 211.663116,375.109985 211.249512,375.831818
    C210.640717,374.988129 210.276779,373.977600 209.869446,372.637634
    C210.295868,372.241852 210.765686,372.175507 211.605042,372.436707
    C211.983261,373.176208 211.991943,373.588104 212.000610,374.000000
z"/>
    <path fill="#B46962" opacity="1.000000" stroke="none"
          d="
M103.056046,239.023926
    C103.364288,247.937759 103.223503,256.921234 103.149475,266.351227
    C103.216248,266.797760 102.907143,267.102478 102.331924,267.155151
    C95.800797,267.166748 89.837013,267.297455 83.891747,267.024658
    C79.882729,266.840698 78.719292,268.525269 78.793228,272.299530
    C78.922646,278.906647 78.659729,285.521515 78.561188,292.133118
    C78.220360,292.105621 77.879524,292.078125 77.282005,292.016602
    C77.012047,284.303741 76.998772,276.624847 76.972656,268.478851
    C77.309151,264.805145 77.867798,261.604706 77.961998,258.390656
    C78.131432,252.609283 78.022324,246.819733 78.023567,240.575012
    C84.431625,240.011932 90.846916,239.951614 97.258987,239.774414
    C99.046570,239.725006 100.824600,239.330017 103.056046,239.023926
z"/>
    <path fill="#FCBF9F" opacity="1.000000" stroke="none"
          d="
M126.538361,188.447723
    C127.719063,190.239914 129.067490,192.002869 129.087524,193.780792
    C129.253662,208.525177 129.174316,223.272324 128.983612,238.577301
    C128.798019,239.135941 128.911102,239.468842 128.460480,239.573898
    C120.344040,239.765976 112.678223,239.852997 105.012405,239.940018
    C104.691986,239.679352 104.371559,239.418671 103.745880,239.086609
    C103.505608,222.661911 103.570587,206.308609 103.668854,189.488464
    C103.702141,189.021637 104.102928,188.956940 104.135361,188.756958
    C111.475327,188.513138 118.782852,188.469284 126.538361,188.447723
z"/>
    <path fill="#FEED85" opacity="1.000000" stroke="none"
          d="
M393.024536,240.660034
    C401.987579,240.146912 410.928894,240.082733 420.301056,240.110321
    C420.860352,257.417297 420.988770,274.632507 421.213074,292.386719
    C421.308990,292.925690 421.288391,293.264160 421.144531,293.358246
    C411.997070,293.314362 402.993469,293.176392 393.448792,292.853027
    C392.907654,292.667603 392.778320,292.262390 392.778320,292.262390
    C392.853149,275.211243 392.927979,258.160126 393.024536,240.660034
z"/>
    <path fill="#FBBE9E" opacity="1.000000" stroke="none"
          d="
M78.883362,292.295044
    C78.659729,285.521515 78.922646,278.906647 78.793228,272.299530
    C78.719292,268.525269 79.882729,266.840698 83.891747,267.024658
    C89.837013,267.297455 95.800797,267.166748 102.179443,267.309570
    C102.912254,268.149078 103.222321,268.886841 103.731079,270.276794
    C103.962898,277.623352 103.996010,284.317749 104.029121,291.012146
    C99.120819,291.385651 94.215889,291.815399 89.302895,292.110901
    C86.488914,292.280151 83.661812,292.231262 80.382423,292.398438
    C79.684662,292.496490 79.445099,292.476715 78.883362,292.295044
z"/>
    <path fill="#010101" opacity="1.000000" stroke="none"
          d="
M289.968231,347.245178
    C289.972809,355.179596 289.977356,363.114014 289.719269,371.589111
    C289.301361,372.221039 289.146088,372.312286 288.990845,372.403503
    C280.306702,372.291351 271.622559,372.179230 262.472626,372.009338
    C262.006836,371.951599 262.001617,372.001892 262.018829,371.532715
    C262.094238,363.167877 262.152435,355.272217 262.277100,347.161652
    C262.343536,346.946777 261.959015,346.713287 262.424011,346.793945
    C271.915436,346.998108 280.941833,347.121643 289.968231,347.245178
z"/>
    <path fill="#443541" opacity="1.000000" stroke="none"
          d="
M289.054077,372.653625
    C289.146088,372.312286 289.301361,372.221039 289.716492,372.056763
    C290.151855,372.013550 290.327393,372.043457 290.761749,372.141602
    C290.386139,372.441162 289.751709,372.672455 289.054077,372.653625
z"/>
    <path fill="#FEFEFE" opacity="1.000000" stroke="none"
          d="
M290.419739,347.102112
    C280.941833,347.121643 271.915436,346.998108 262.497314,346.349670
    C262.105591,337.772400 262.105591,329.720032 262.105591,320.954498
    C257.885590,320.954498 254.444305,320.954498 251.003204,320.489685
    C250.959854,311.325989 250.916321,302.627045 251.348877,293.901367
    C264.968964,293.746796 278.112976,293.618988 291.702515,293.553619
    C298.765381,293.674255 305.382660,293.732422 312.000000,293.790588
    C312.348755,299.702545 312.771393,305.611481 313.016388,311.527740
    C313.146667,314.673706 312.969269,317.832428 312.932678,321.447296
    C312.904266,329.838135 312.873962,337.767029 312.867798,346.130554
    C305.551727,346.696442 298.211487,346.827728 290.419739,347.102112
z"/>
    <path fill="#1F1F33" opacity="1.000000" stroke="none"
          d="
M341.752472,268.982025
    C341.725281,276.337708 341.698090,283.693390 341.400574,291.471191
    C340.380096,292.372101 339.629944,292.850861 338.879791,293.329651
    C330.600494,293.209167 322.321228,293.088684 313.662781,292.359863
    C313.264191,283.986969 313.244781,276.222351 313.606689,268.301514
    C322.638641,267.889404 331.288727,267.600952 339.941193,267.448914
    C340.535797,267.438446 341.148285,268.447235 341.752472,268.982025
z"/>
    <path fill="#BD736A" opacity="1.000000" stroke="none"
          d="
M313.225372,268.457764
    C313.244781,276.222351 313.264191,283.986969 313.305908,292.192749
    C313.006866,292.864319 312.685516,293.094757 312.182068,293.557892
    C305.382660,293.732422 298.765381,293.674255 291.563782,293.197449
    C290.636017,290.719727 290.103119,288.671448 289.984222,286.599457
    C289.610870,280.093536 289.393250,273.578735 289.562683,266.946075
    C297.660034,266.857605 305.309998,266.890381 313.014221,267.308899
    C313.120789,267.949066 313.173096,268.203430 313.225372,268.457764
z"/>
    <path fill="#AA6D66" opacity="1.000000" stroke="none"
          d="
M339.158691,293.577118
    C339.629944,292.850861 340.380096,292.372101 341.416046,291.938232
    C358.430420,292.049164 375.158997,292.115173 392.332947,292.221771
    C392.778320,292.262390 392.907654,292.667603 392.984192,292.867004
    C393.006836,293.286591 392.952972,293.506744 392.773438,294.043152
    C375.964966,294.264771 359.282196,294.170074 342.100159,294.028900
    C340.879761,293.929810 340.158691,293.877197 339.158691,293.577118
z"/>
    <path fill="#FBC0A1" opacity="1.000000" stroke="none"
          d="
M289.115295,267.067352
    C289.393250,273.578735 289.610870,280.093536 289.984222,286.599457
    C290.103119,288.671448 290.636017,290.719727 291.118225,293.135010
    C278.112976,293.618988 264.968964,293.746796 251.013245,293.906097
    C249.750748,293.964966 249.299957,293.992401 248.480560,293.844360
    C239.190872,293.524902 230.269806,293.380951 221.348755,293.236969
    C208.807739,293.149078 196.266724,293.061188 183.278442,292.426025
    C182.861282,285.600250 183.038712,279.317657 182.861420,273.045074
    C182.768173,269.745758 184.014282,268.715546 187.193008,268.808594
    C193.301941,268.987396 199.423706,268.981934 205.531616,268.786316
    C207.365204,268.727600 209.170502,267.785370 211.224960,267.246399
    C211.461166,267.244934 211.923859,267.149200 212.272186,267.373291
    C228.166458,267.681549 243.712387,267.773895 259.258453,267.818970
    C259.860718,267.820709 260.464325,267.368164 261.321716,267.142761
    C261.734741,267.097137 261.893311,267.035980 262.505310,267.093140
    C271.648773,267.153900 280.338806,267.096375 289.053436,267.036804
    C289.078064,267.034760 289.115295,267.067352 289.115295,267.067352
z"/>
    <path fill="#8E50B6" opacity="1.000000" stroke="none"
          d="
M221.303192,293.680847
    C230.269806,293.380951 239.190872,293.524902 248.490417,294.311584
    C248.878250,302.236572 248.778412,309.522064 248.991867,316.798370
    C249.033051,318.202209 250.300995,319.570038 251.003021,320.954498
    C254.444305,320.954498 257.885590,320.954498 262.105591,320.954498
    C262.105591,329.720032 262.105591,337.772400 262.032288,346.269043
    C261.959015,346.713287 262.343536,346.946777 261.808044,347.025574
    C252.433350,347.179199 243.594116,347.254028 234.754883,347.328857
    C230.455185,347.209229 226.155502,347.089539 221.409424,346.848999
    C221.061234,329.193665 221.159439,311.659180 221.303192,293.680847
z"/>
    <path fill="#BA7067" opacity="1.000000" stroke="none"
          d="
M209.561371,266.378784
    C209.325546,257.779816 209.388336,249.160080 209.767456,240.258484
    C210.386841,244.635025 210.778931,249.289871 210.964966,253.952942
    C211.115097,257.716339 211.016602,261.489655 211.040588,265.751221
    C210.655151,266.281952 210.257568,266.320007 209.561371,266.378784
z"/>
    <path fill="#BA7067" opacity="1.000000" stroke="none"
          d="
M210.988754,267.247864
    C209.170502,267.785370 207.365204,268.727600 205.531616,268.786316
    C199.423706,268.981934 193.301941,268.987396 187.193008,268.808594
    C184.014282,268.715546 182.768173,269.745758 182.861420,273.045074
    C183.038712,279.317657 182.861282,285.600250 182.805389,292.325104
    C176.520340,293.067474 170.261215,293.367004 164.001678,293.657379
    C162.017899,293.749451 160.032974,293.817078 157.590347,293.922485
    C157.053421,285.965027 156.974731,277.980957 156.797058,269.543457
    C156.731155,268.700226 156.764267,268.310455 156.866058,267.495850
    C156.934753,267.071014 157.181702,266.817657 157.628113,266.900269
    C166.321442,266.934479 174.568375,266.886078 183.219330,266.801605
    C192.169815,266.643555 200.716293,266.521545 209.561371,266.378784
    C210.257568,266.320007 210.655151,266.281952 211.031693,266.494568
    C211.003342,266.912781 210.996048,267.080322 210.988754,267.247864
z"/>
    <path fill="#444445" opacity="1.000000" stroke="none"
          d="
M234.766693,347.771301
    C243.594116,347.254028 252.433350,347.179199 261.741638,347.240417
    C262.152435,355.272217 262.094238,363.167877 262.043701,371.532288
    C253.259338,372.012146 244.467361,372.023315 235.172394,372.011932
    C234.705765,364.064178 234.742126,356.138977 234.766693,347.771301
z"/>
    <path fill="#111529" opacity="1.000000" stroke="none"
          d="
M212.469116,374.000000
    C211.991943,373.588104 211.983261,373.176208 211.960754,372.458435
    C218.652969,372.111145 225.358978,372.069763 232.533524,372.037537
    C231.723419,372.697662 230.464874,373.859161 229.162643,373.910339
    C223.761475,374.122711 218.347122,373.999847 212.469116,374.000000
z"/>
    <path fill="#BE6B63" opacity="1.000000" stroke="none"
          d="
M104.495026,291.009277
    C103.996010,284.317749 103.962898,277.623352 103.972214,270.461243
    C109.976212,269.995605 115.944946,270.175171 121.896698,269.934723
    C125.595573,269.785248 127.480286,270.616089 127.060471,274.817047
    C126.541039,280.014954 128.354706,286.951721 125.639572,289.969696
    C123.274155,292.598938 116.018250,290.845978 110.922211,290.992249
    C108.936615,291.049225 106.948105,291.004700 104.495026,291.009277
z"/>
    <path fill="#BE6B63" opacity="1.000000" stroke="none"
          d="
M156.815521,267.201660
    C149.484573,267.225922 142.272064,267.155121 135.061783,266.987640
    C133.293655,266.946564 131.532852,266.589600 129.435059,265.720825
    C129.204041,257.066101 129.306625,249.068436 129.839706,241.046783
    C135.669083,241.009689 141.072449,241.124359 146.465256,240.936584
    C149.820877,240.819733 153.160553,240.245255 156.673767,240.259628
    C156.954010,249.367950 157.067856,258.092804 157.181702,266.817657
    C157.181702,266.817657 156.934753,267.071014 156.815521,267.201660
z"/>
    <path fill="#13182E" opacity="1.000000" stroke="none"
          d="
M129.409225,241.070770
    C129.306625,249.068436 129.204041,257.066101 129.061798,265.530914
    C122.386208,266.017059 115.745438,265.892548 109.116341,266.115387
    C105.789909,266.227173 104.806908,264.984436 104.897102,261.787201
    C105.093513,254.824585 104.978859,247.853195 105.001877,240.412689
    C112.678223,239.852997 120.344040,239.765976 128.513489,239.997055
    C129.147812,240.567032 129.278519,240.818893 129.409225,241.070770
z"/>
    <path fill="#FCBF9F" opacity="1.000000" stroke="none"
          d="
M157.879105,134.881729
    C164.866531,134.809738 171.857712,134.849319 178.839722,134.615784
    C182.029297,134.509079 182.836655,135.907349 182.765335,138.790451
    C182.625412,144.447662 182.858261,150.115509 182.661484,155.769363
    C182.550797,158.949524 183.545944,160.242294 186.879486,160.234329
    C219.843979,160.155563 252.808853,160.146667 285.773224,160.244354
    C289.251587,160.254654 289.992279,158.742325 289.916046,155.712326
    C289.773712,150.055283 289.993744,144.388504 289.823120,138.733017
    C289.731659,135.702988 290.845398,134.541489 293.866302,134.630447
    C300.018524,134.811630 306.176849,134.785706 312.774292,135.394104
    C313.227509,151.397430 313.090912,166.854202 313.341827,182.304657
    C313.416046,186.873749 312.068451,188.378128 307.403870,188.280441
    C293.783264,187.995193 280.152802,188.199448 266.526428,188.153168
    C264.003113,188.144592 261.880859,188.132507 261.992340,191.665604
    C262.227753,199.126785 262.248688,206.594727 262.249512,214.513367
    C262.008514,223.257584 261.875610,231.548340 261.291809,239.843277
    C247.216034,239.869247 233.591003,239.941727 219.966385,239.895264
    C210.682388,239.863602 212.046051,241.125336 211.806412,231.622513
    C211.658234,225.747025 211.177597,219.879913 210.824875,213.540283
    C210.798218,206.506317 210.897797,199.938171 210.713623,193.377991
    C210.667755,191.744431 209.705627,190.136597 209.004913,188.172485
    C207.082825,187.590179 205.321304,187.153503 203.557983,187.146118
    C189.956696,187.089218 176.354752,187.158920 162.753845,187.066360
    C160.842377,187.053360 158.935440,186.372543 157.026413,186.000839
    C157.010361,185.832626 156.994308,185.664429 157.259094,184.932037
    C157.652985,167.872467 157.766037,151.377106 157.879105,134.881729
z"/>
    <path fill="#363248" opacity="1.000000" stroke="none"
          d="
M262.357605,214.059906
    C262.248688,206.594727 262.227753,199.126785 261.992340,191.665604
    C261.880859,188.132507 264.003113,188.144592 266.526428,188.153168
    C280.152802,188.199448 293.783264,187.995193 307.403870,188.280441
    C312.068451,188.378128 313.416046,186.873749 313.341827,182.304657
    C313.090912,166.854202 313.227509,151.397430 313.255920,135.481171
    C313.849243,135.893600 314.879974,136.765198 314.885010,137.642670
    C314.975372,153.433365 315.162170,169.229126 314.851776,185.014420
    C314.667145,194.403488 313.658661,203.776352 312.522705,213.649124
    C304.542114,214.466415 297.059357,214.791092 289.139130,214.973602
    C279.920319,214.574265 271.138977,214.317078 262.357605,214.059906
z"/>
    <path fill="#302E45" opacity="1.000000" stroke="none"
          d="
M209.164642,188.516937
    C209.705627,190.136597 210.667755,191.744431 210.713623,193.377991
    C210.897797,199.938171 210.798218,206.506317 210.519043,213.516373
    C210.030090,213.968719 209.825653,213.976196 209.184097,213.999207
    C200.126266,214.361557 191.505554,214.708359 182.460770,214.842957
    C173.739594,214.498917 165.442490,214.367081 157.145370,214.235260
    C157.102600,206.080978 157.059814,197.926682 157.500916,189.333740
    C163.124802,188.919296 168.265381,189.003830 173.404724,188.955505
    C185.325012,188.843445 197.244705,188.667175 209.164642,188.516937
z"/>
    <path fill="#FDC1A0" opacity="1.000000" stroke="none"
          d="
M157.100830,214.686279
    C165.442490,214.367081 173.739594,214.498917 182.333008,215.252716
    C182.756180,217.541351 182.883072,219.208008 182.767883,221.295334
    C182.466660,228.139893 182.298553,234.565140 182.379105,240.987274
    C182.459152,247.369888 182.789200,253.749359 182.830383,260.512939
    C182.705856,262.876343 182.760574,264.856995 182.815292,266.837646
    C174.568375,266.886078 166.321442,266.934479 157.628113,266.900269
    C157.067856,258.092804 156.954010,249.367950 156.647644,240.237396
    C156.455139,239.831711 156.430603,239.775146 156.430603,239.775146
    C156.639175,231.562546 156.847733,223.349930 157.100830,214.686279
z"/>
    <path fill="#FDC1A0" opacity="1.000000" stroke="none"
          d="
M289.576569,215.115784
    C297.059357,214.791092 304.542114,214.466415 312.490112,214.123398
    C312.955353,214.105057 312.972321,214.516144 312.921021,215.119202
    C312.662079,218.028839 312.252533,220.337814 312.279572,222.641663
    C312.453003,237.402786 312.722229,252.162811 312.959961,266.923157
    C305.309998,266.890381 297.660034,266.857605 289.562683,266.946075
    C289.115295,267.067352 289.078064,267.034760 289.252747,266.763580
    C289.459137,266.044861 289.490814,265.597351 289.784912,265.120972
    C289.936981,264.334473 289.826630,263.576843 289.717651,262.364563
    C289.671600,246.311890 289.624084,230.713821 289.576569,215.115784
z"/>
    <path fill="#AA6D66" opacity="1.000000" stroke="none"
          d="
M313.014221,267.308929
    C312.722229,252.162811 312.453003,237.402786 312.279572,222.641663
    C312.252533,220.337814 312.662079,218.028839 312.987976,215.313721
    C313.639404,216.291992 314.586761,217.665268 314.632629,219.068008
    C314.811707,224.548279 314.748810,230.038391 314.684875,235.523773
    C314.658112,237.822083 315.112762,239.396423 317.916473,239.327713
    C325.551147,239.140579 333.188538,239.062210 341.268799,238.889862
    C341.712738,238.838989 342.064636,239.062881 341.986389,239.775787
    C341.908173,249.180801 341.908173,257.872894 341.908173,267.391174
    C351.573425,266.901184 360.423126,266.452515 369.272827,266.003845
    C370.088135,269.508759 367.391388,268.760345 365.681396,268.780212
    C357.951294,268.819244 350.219604,268.819244 342.120483,268.900543
    C341.148285,268.447235 340.535797,267.438446 339.941193,267.448914
    C331.288727,267.600952 322.638641,267.889404 313.606689,268.301514
    C313.173096,268.203430 313.120789,267.949066 313.014221,267.308929
z"/>
    <path fill="#B96E65" opacity="1.000000" stroke="none"
          d="
M209.004913,188.172470
    C197.244705,188.667175 185.325012,188.843445 173.404724,188.955505
    C168.265381,189.003830 163.124802,188.919296 157.522247,188.853775
    C156.980240,188.104126 156.900772,187.395782 156.923859,186.344147
    C158.935440,186.372543 160.842377,187.053360 162.753845,187.066360
    C176.354752,187.158920 189.956696,187.089218 203.557983,187.146118
    C205.321304,187.153503 207.082825,187.590179 209.004913,188.172470
z"/>
    <path fill="#B96E65" opacity="1.000000" stroke="none"
          d="
M157.494980,134.973419
    C157.766037,151.377106 157.652985,167.872467 157.271576,184.678909
    C156.775330,183.053192 156.358810,181.117279 156.350006,179.179504
    C156.291153,166.227615 156.289459,153.275177 156.354248,140.323364
    C156.363022,138.569382 156.846954,136.817795 157.494980,134.973419
z"/>
    <path fill="#9D655E" opacity="1.000000" stroke="none"
          d="
M155.943726,239.623413
    C156.430603,239.775146 156.455139,239.831711 156.481262,239.853943
    C153.160553,240.245255 149.820877,240.819733 146.465256,240.936584
    C141.072449,241.124359 135.669083,241.009689 129.839706,241.046783
    C129.278519,240.818893 129.147812,240.567032 128.964111,239.891998
    C128.911102,239.468842 128.798019,239.135941 128.946594,239.041473
    C137.882416,239.121902 146.669632,239.296799 155.943726,239.623413
z"/>
    <path fill="#161A2F" opacity="1.000000" stroke="none"
          d="
M369.275238,265.534302
    C360.423126,266.452515 351.573425,266.901184 341.908173,267.391174
    C341.908173,257.872894 341.908173,249.180801 341.959656,239.982605
    C350.711914,239.580780 359.412689,239.685043 368.578796,239.872894
    C369.121948,248.325897 369.199799,256.695343 369.275238,265.534302
z"/>
    <path fill="#D8D9E0" opacity="1.000000" stroke="none"
          d="
M251.003204,320.489685
    C250.300995,319.570038 249.033051,318.202209 248.991867,316.798370
    C248.778412,309.522064 248.878250,302.236572 248.859039,294.487061
    C249.299957,293.992401 249.750748,293.964966 250.537155,293.932861
    C250.916321,302.627045 250.959854,311.325989 251.003204,320.489685
z"/>
    <path fill="#13182E" opacity="1.000000" stroke="none"
          d="
M289.139130,214.973602
    C289.624084,230.713821 289.671600,246.311890 289.427216,262.700256
    C289.264404,264.043671 289.393463,264.596741 289.522522,265.149811
    C289.490814,265.597351 289.459137,266.044861 289.228149,266.765625
    C280.338806,267.096375 271.648773,267.153900 262.526001,266.626221
    C261.976410,257.307037 261.859589,248.573074 261.742737,239.839096
    C261.875610,231.548340 262.008514,223.257584 262.249512,214.513367
    C271.138977,214.317078 279.920319,214.574265 289.139130,214.973602
z"/>
    <path fill="#B96E65" opacity="1.000000" stroke="none"
          d="
M261.291809,239.843277
    C261.859589,248.573074 261.976410,257.307037 262.072571,266.507935
    C261.893311,267.035980 261.734741,267.097137 261.034241,266.821777
    C259.861450,266.327515 259.230865,266.033295 258.599731,266.031982
    C244.233078,266.002167 229.866211,265.977203 215.499908,266.050385
    C214.306061,266.056458 213.115799,266.766327 211.923859,267.149200
    C211.923859,267.149200 211.461166,267.244934 211.224960,267.246399
    C210.996048,267.080322 211.003342,266.912781 211.019531,266.001892
    C211.016602,261.489655 211.115097,257.716339 210.964966,253.952942
    C210.778931,249.289871 210.386841,244.635025 210.076080,239.509460
    C209.919312,230.689407 209.770248,222.336548 209.621201,213.983673
    C209.825653,213.976196 210.030090,213.968719 210.540375,213.985138
    C211.177597,219.879913 211.658234,225.747025 211.806412,231.622513
    C212.046051,241.125336 210.682388,239.863602 219.966385,239.895264
    C233.591003,239.941727 247.216034,239.869247 261.291809,239.843277
z"/>
    <path fill="#BA7067" opacity="1.000000" stroke="none"
          d="
M212.272186,267.373291
    C213.115799,266.766327 214.306061,266.056458 215.499908,266.050385
    C229.866211,265.977203 244.233078,266.002167 258.599731,266.031982
    C259.230865,266.033295 259.861450,266.327515 260.779785,266.806274
    C260.464325,267.368164 259.860718,267.820709 259.258453,267.818970
    C243.712387,267.773895 228.166458,267.681549 212.272186,267.373291
z"/>
    <path fill="#14182E" opacity="1.000000" stroke="none"
          d="
M209.184097,213.999207
    C209.770248,222.336548 209.919312,230.689407 209.759766,239.791321
    C209.388336,249.160080 209.325546,257.779816 209.262756,266.399536
    C200.716293,266.521545 192.169815,266.643555 183.219330,266.801605
    C182.760574,264.856995 182.705856,262.876343 183.171783,260.436584
    C184.112106,259.333862 184.893478,258.692596 184.897781,258.046173
    C184.975204,246.446701 184.997040,234.846176 184.878265,223.247452
    C184.870102,222.450226 183.660721,221.665298 183.009964,220.874664
    C182.883072,219.208008 182.756180,217.541351 182.757050,215.464935
    C191.505554,214.708359 200.126266,214.361557 209.184097,213.999207
z"/>
    <path fill="#302E45" opacity="1.000000" stroke="none"
          d="
M209.561371,266.378784
    C209.325546,257.779816 209.388336,249.160080 209.767456,240.258484
    C210.386841,244.635025 210.778931,249.289871 210.964966,253.952942
    C211.115097,257.716339 211.016602,261.489655 211.040588,265.751221
    C210.655151,266.281952 210.257568,266.320007 209.561371,266.378784
z"/>
    <path fill="#302E45" opacity="1.000000" stroke="none"
          d="
M182.767883,221.295334
    C183.660721,221.665298 184.870102,222.450226 184.878265,223.247452
    C184.997040,234.846176 184.975204,246.446701 184.897781,258.046173
    C184.893478,258.692596 184.112106,259.333862 183.351028,260.053864
    C182.789200,253.749359 182.459152,247.369888 182.379105,240.987274
    C182.298553,234.565140 182.466660,228.139893 182.767883,221.295334
z"/>
    <path fill="#BD736A" opacity="1.000000" stroke="none"
          d="
M289.784943,265.120972
    C289.393463,264.596741 289.264404,264.043671 289.425781,263.154907
    C289.826630,263.576843 289.936981,264.334473 289.784943,265.120972
z"/>
</svg>